<svg width="512" height="234" viewBox="0 0 512 234" fill="none" xmlns="http://www.w3.org/2000/svg">
<g clip-path="url(#clip0)">
<path d="M489.275 17.0407C490.372 13.1847 492.678 10.5387 496.195 9.10276C499.712 7.66681 504.878 6.83837 511.695 6.61745V0C505.982 0.220917 498.457 0.441833 489.12 0.66275C479.783 0.883666 469.728 0.997472 458.955 1.00417C448.852 1.00417 438.747 0.893708 428.64 0.672791C418.533 0.451875 410.293 0.227611 403.92 0V6.61745C410.73 6.84507 415.838 7.6735 419.245 9.10276C422.652 10.532 424.958 13.178 426.165 17.0407C427.368 20.9067 427.973 26.9183 427.98 35.0755V113.175H347.24V35.0755C347.24 26.9183 347.79 20.9067 348.89 17.0407C349.99 13.1747 352.297 10.5287 355.81 9.10276C359.32 7.66681 364.487 6.83837 371.31 6.61745V0C365.16 0.220917 357.307 0.441833 347.75 0.66275C338.193 0.883666 328.577 0.997472 318.9 1.00417C307.693 1.00417 297.147 0.893708 287.26 0.672791L284.84 0.617562C278.773 0.410034 272.022 0.20418 264.585 0V0.0401666L263.535 0V6.61745C266.08 6.68996 268.62 6.89105 271.145 7.21995C275.117 7.81709 278.927 9.22141 282.34 11.3471C283.962 12.9106 285.148 14.8736 285.78 17.0407C286.987 20.9067 287.59 26.9183 287.59 35.0755V70.2213C286.805 73.033 285.94 75.935 284.985 78.9576L256.65 169.654L212.59 34.3676C209.957 26.4347 208.913 20.5419 209.46 16.6892C210.007 12.8366 212.147 10.2475 215.88 8.92202C219.603 7.60321 224.868 6.83168 231.675 6.60741V0C226.185 0.220917 219.055 0.441833 210.285 0.66275C201.515 0.883666 192.19 0.997472 182.31 1.00417C172.873 1.00417 163.55 0.893708 154.34 0.672791C145.13 0.451875 137.122 0.227611 130.315 0V6.60741C133.972 6.80524 137.478 8.1327 140.355 10.4082C143.315 12.7211 145.783 16.962 147.76 23.131L167.445 83.2805L136.075 171.928L88.525 34.3575C87.2147 30.4387 86.2772 26.404 85.725 22.3075C85.175 18.2306 85.675 14.7612 87.225 11.8994C88.775 9.03749 91.6283 7.27351 95.785 6.60741V0C91.1617 0.220917 85.2333 0.441833 78 0.66275C70.7667 0.883666 62.6467 0.997472 53.64 1.00417C44.64 1.00417 35.2067 0.893708 25.34 0.672791C15.4733 0.451875 7.02667 0.227611 0 0V6.60741C3.07667 6.83168 6.47667 8.42997 10.2 11.4023C13.9233 14.3746 17.215 19.8273 20.075 27.7602L95.105 234.292C97.295 234.071 99.605 233.91 102.015 233.79C104.425 233.669 106.84 233.624 109.255 233.624C111.67 233.624 114.135 233.684 116.66 233.79C119.185 233.895 121.54 234.066 123.735 234.292L171.29 95.0343L216.865 234.292C219.055 234.071 221.415 233.91 223.94 233.79C226.465 233.669 228.82 233.624 231.015 233.624C233.65 233.624 236.17 233.684 238.585 233.79C241 233.895 243.3 234.066 245.495 234.292L287.59 97.4593V199.211C287.59 207.154 286.987 213.112 285.78 217.086C284.573 221.059 282.267 223.705 278.86 225.024C275.45 226.362 270.342 227.246 263.535 227.675V234.292C269.465 233.85 277.373 233.574 287.26 233.464C297.147 233.353 307.693 233.298 318.9 233.298C328.567 233.298 338.178 233.353 347.735 233.464C357.292 233.574 365.145 233.85 371.295 234.292V227.675C364.485 227.233 359.378 226.349 355.975 225.024C352.572 223.698 350.263 221.052 349.05 217.086C347.84 213.112 347.237 207.154 347.24 199.211V119.792H428V199.211C428 207.154 427.395 213.112 426.185 217.086C424.975 221.059 422.668 223.705 419.265 225.024C415.855 226.362 410.747 227.246 403.94 227.675V234.292C410.313 233.85 418.547 233.576 428.64 233.469C438.733 233.361 448.838 233.306 458.955 233.303C469.722 233.303 479.773 233.358 489.11 233.469C498.447 233.579 505.972 233.855 511.685 234.297V227.675C504.868 227.233 499.76 226.349 496.36 225.024C492.96 223.698 490.653 221.052 489.44 217.086C488.23 213.112 487.625 207.154 487.625 199.211V35.0755C487.625 26.9183 488.175 20.9067 489.275 17.0407Z" fill="white"/>
</g>
<defs>
<clipPath id="clip0">
<rect width="512" height="233.664" fill="white"/>
</clipPath>
</defs>
</svg>
