<svg width="512" height="512" viewBox="0 0 512 512" fill="none" xmlns="http://www.w3.org/2000/svg">
<path d="M217.366 459.979C176.122 459.979 138.966 451.433 105.896 434.341C72.8269 416.878 46.8173 392.726 27.8674 361.886C9.28914 330.674 0 295.376 0 255.99C0 216.604 9.28914 181.491 27.8674 150.651C46.8173 119.439 72.8269 95.2874 105.896 78.1954C138.966 60.7318 176.122 52 217.366 52C255.266 52 289.078 58.6882 318.803 72.0646C348.529 85.4409 373.052 104.762 392.374 130.029L309.329 204.156C285.177 173.688 256.752 158.454 224.054 158.454C196.558 158.454 174.45 167.371 157.73 185.206C141.009 202.67 132.649 226.264 132.649 255.99C132.649 285.715 141.009 309.495 157.73 327.33C174.45 344.794 196.558 353.526 224.054 353.526C256.752 353.526 285.177 338.291 309.329 307.823L392.374 381.95C373.052 407.217 348.529 426.538 318.803 439.915C289.078 453.291 255.266 459.979 217.366 459.979Z" fill="white"/>
<path d="M483.715 98.4134C492.763 100.647 499.688 104.725 504.492 110.645C509.407 116.454 511.864 123.491 511.864 131.757C511.864 138.795 509.909 145.385 506 151.529C502.202 157.561 496.281 162.476 488.239 166.274C480.196 170.072 470.198 171.971 458.246 171.971C449.98 171.971 441.714 171.077 433.447 169.29C425.293 167.503 418.144 164.878 412 161.415L425.405 132.26C430.208 135.053 435.346 137.175 440.82 138.627C446.405 140.079 451.767 140.805 456.905 140.805C461.485 140.805 465.172 140.023 467.964 138.46C470.757 136.896 472.153 134.662 472.153 131.757C472.153 126.395 467.517 123.715 458.246 123.715H442.663V99.4187L459.921 81.8252H418.032V52H505.497V76.2958L483.715 98.4134Z" fill="white"/>
</svg>
