<svg width="487" height="507" viewBox="0 0 487 507" fill="none" xmlns="http://www.w3.org/2000/svg">
<path fill-rule="evenodd" clip-rule="evenodd" d="M243 505.366C251.769 506.035 260.698 506.369 269.787 506.369C316.827 506.369 358.794 498.068 395.687 481.466C432.581 464.864 463.019 440.882 487 409.523L383.928 317.518C353.951 355.335 318.671 374.243 278.088 374.243C265.479 374.243 253.783 372.763 243 369.805V505.366ZM164 488.772V17.9801C152.812 22.1121 141.956 26.9563 131.435 32.5128C90.3901 53.7268 58.108 83.7031 34.5881 122.442C11.5294 160.719 0 204.3 0 253.185C0 302.069 11.5294 345.881 34.5881 384.619C58.108 422.897 90.3901 452.873 131.435 474.548C141.956 479.986 152.812 484.728 164 488.772ZM243 1.02494C251.769 0.341648 260.698 0 269.787 0C316.827 0 358.794 8.30114 395.687 24.9034C432.581 41.5057 463.019 65.4867 487 96.8466L383.928 188.851C353.951 151.035 318.671 132.126 278.088 132.126C265.479 132.126 253.783 133.637 243 136.659V1.02494Z" fill="white"/>
</svg>
